<svg style="height: 512px; width: 512px;" xmlns="http://www.w3.org/2000/svg" viewBox="0 0 512 512"><defs><radialGradient id="lorc-burning-book-gradient-0"><stop offset="0%" stop-color="#7ed321" stop-opacity="1"></stop><stop offset="100%" stop-color="#417505" stop-opacity="1"></stop></radialGradient></defs><g class="" style="" transform="translate(0,0)"><g><path d="M263.813 18.594C213.426 31.344 183.123 84.919 213 129.814C235.477 163.587 257.967 190.981 221.75 208.874C198.397 220.414 171.723 192.42 175.625 159.594C180.437 119.109 156.92 79.667 129.5 71.406C175.737 177.826 86.04 248.404 104.97 148.5C74.684 164.595 72.186 207.517 93.72 271.22C53.348 254.02 38.65 204.453 55.438 150.656C19.572 179.006 2.138 281.56 40.812 334.126C136.425 464.08 248.156 496.343 268 496.343C289.144 496.343 385.334 462.627 457.594 381.218C499.376 334.144 508.52 212.318 466.814 137.56C472.794 162.895 460.697 214.346 432.969 231.592C437.967 173.818 429.056 90.648 396.279 60.062C428.901 232.864 303.269 212.264 347.905 159.592C377.415 124.767 347.735 57.092 330.405 47.217C341.299 89.337 316.165 116.893 275.685 108.653C248.433 103.106 230.942 63.696 263.812 18.591Z" class="selected" fill="#0000ff" fill-opacity="1"></path><path d="M148.656 230.064L167.344 230.064L167.344 395.25L270.064 451.063L372.78 395.25L372.78 230.094L391.47 230.094L391.47 406.374L386.562 409.031L274.5 469.876L270.062 472.314L265.594 469.876L153.53 409.03L148.656 406.375L148.656 230.062Z" class="" fill="#d0021b" fill-opacity="0"></path><path d="M186.186 230.281L259.719 274.813L259.719 423.126L186.186 381.688L186.186 230.28Z" class="" fill="#d0021b" fill-opacity="0"></path><path d="M353.906 230.281L353.906 381.688L278.406 424.251L278.406 276.03L353.906 230.28Z" class="" fill="#d0021b" fill-opacity="0"></path></g></g><g class="" style="" transform="translate(142,216)"><g><circle cx="128" cy="128" r="128" fill="#000000" fill-opacity="0.01"></circle><circle stroke="#ffffff" stroke-opacity="1" fill="#000000" fill-opacity="0.01" stroke-width="18" cx="128" cy="128" r="101"></circle><path fill="#ffffff" fill-opacity="1" d="M119 64v55H64v18h55v55h18v-55h55v-18h-55V64h-18z"></path></g></g></svg>