<svg style="height: 512px; width: 512px;" xmlns="http://www.w3.org/2000/svg" viewBox="0 0 512 512"><defs><radialGradient id="skoll-hearts-gradient-0"><stop offset="0%" stop-color="#7ed321" stop-opacity="1"></stop><stop offset="100%" stop-color="#417505" stop-opacity="1"></stop></radialGradient></defs><g class="" style="" transform="translate(0,0)"><path d="M480.25 156.355c0 161.24-224.25 324.43-224.25 324.43S31.75 317.595 31.75 156.355c0-91.41 70.63-125.13 107.77-125.13 77.65 0 116.48 65.72 116.48 65.72s38.83-65.73 116.48-65.73c37.14.01 107.77 33.72 107.77 125.14z" fill="#aa0000" fill-opacity="1" transform="translate(25.6, 25.6) scale(0.9, 0.9) rotate(360, 256, 256) skewX(0) skewY(0)"></path></g><g class="" style="" transform="translate(127,125)"><g><circle cx="128" cy="128" r="128" fill="#000000" fill-opacity="0.01"></circle><circle stroke="#ffffff" stroke-opacity="1" fill="#000000" fill-opacity="0.01" stroke-width="18" cx="128" cy="128" r="101"></circle><path fill="#ffffff" fill-opacity="1" d="M119 64v55H64v18h55v55h18v-55h55v-18h-55V64h-18z"></path></g></g></svg>